Coordinates
version=1
nRows=22
nColumns=24
inDegrees=yes

Units are S.I. units (second, meters, Newtons, ...)
Angles are in degrees.

endheader
time	pelvis_tilt	pelvis_list	pelvis_rotation	pelvis_tx	pelvis_ty	pelvis_tz	hip_flexion_r	hip_adduction_r	hip_rotation_r	knee_angle_r	ankle_angle_r	subtalar_angle_r	mtp_angle_r	hip_flexion_l	hip_adduction_l	hip_rotation_l	knee_angle_l	ankle_angle_l	subtalar_angle_l	mtp_angle_l	lumbar_extension	lumbar_bending	lumbar_rotation
      1.62500000	      2.36596570	      3.97419563	     -1.30177569	      0.47992001	      1.07073859	      0.33437135	     10.29149111	     -6.47849027	     -2.00697178	    -62.35053457	     -1.13769336	    -11.59506875	      4.77581090	      2.95821647	      9.47989345	     -4.74452712	     -6.31976365	      0.66648917	     -3.58643451	      1.11882470	      5.50203181	     -1.98979243	     -0.63066544
      1.62916667	      2.41292498	      3.96943640	     -1.21157240	      0.48449259	      1.07123587	      0.33409348	     10.80931195	     -6.43657163	     -1.83175378	    -62.18424642	     -0.63276661	    -11.66130169	      4.65686793	      2.52871968	      9.49679291	     -4.66884709	     -6.12823268	      0.79630118	     -3.42398971	      1.06098256	      5.41536405	     -1.98912839	     -0.80218170
      1.63333333	      2.43507003	      3.98026289	     -1.14336803	      0.48903092	      1.07165561	      0.33377465	     11.35986440	     -6.41536362	     -1.64033893	    -61.98393738	     -0.30303680	    -11.72635128	      4.59368765	      2.12049841	      9.53925169	     -4.55497563	     -5.91360361	      0.86897130	     -3.29655152	      1.03043040	      5.34546924	     -1.95805662	     -0.90394674
      1.63750000	      2.45602254	      3.95989808	     -1.04825882	      0.49357937	      1.07209338	      0.33361579	     11.88340495	     -6.33601156	     -1.45278219	    -61.71375384	      0.04311207	    -11.79999290	      4.54967221	      1.71583412	      9.52353787	     -4.45885134	     -5.72419095	      0.94308006	     -3.20478980	      1.00875540	      5.27033595	     -1.95927022	     -0.98407429
      1.64166667	      2.49143608	      3.96018510	     -0.92270804	      0.49810966	      1.07251843	      0.33328835	     12.38032422	     -6.30565218	     -1.34464916	    -61.45370337	      0.78005349	    -11.82885545	      4.40826241	      1.30342818	      9.54656482	     -4.43023295	     -5.53286865	      1.13076950	     -3.05527020	      0.93345930	      5.20566768	     -1.98137685	     -1.20464500
      1.64583333	      2.49261340	      3.94883706	     -0.84505015	      0.50264463	      1.07287376	      0.33308837	     12.91524264	     -6.24044916	     -1.15338163	    -61.11255822	      0.97123813	    -11.85875154	      4.37571081	      0.91069502	      9.54955235	     -4.31866775	     -5.31147618	      1.16577095	     -2.96438783	      0.91696921	      5.13578026	     -1.97040949	     -1.26571590
      1.65000000	      2.51201603	      3.95413756	     -0.74292328	      0.50716322	      1.07322436	      0.33280158	     13.41769673	     -6.21022505	     -1.02549516	    -60.78150282	      1.64570161	    -11.88892953	      4.24770287	      0.50313190	      9.57868151	     -4.24586380	     -5.09580385	      1.32711037	     -2.84902614	      0.84544440	      5.11045664	     -1.97355120	     -1.46296193
      1.65416667	      2.50455330	      3.94774366	     -0.66333444	      0.51166061	      1.07352264	      0.33262953	     13.94221773	     -6.14740792	     -0.84459109	    -60.36542690	      1.83273105	    -11.90845886	      4.21472298	      0.11902000	      9.58458807	     -4.14275188	     -4.86611129	      1.35967492	     -2.76914870	      0.82769580	      5.04263296	     -1.97432681	     -1.52174725
      1.65833333	      2.48548516	      3.97114836	     -0.54915913	      0.51608849	      1.07375557	      0.33229086	     14.47476763	     -6.14556801	     -0.72123952	    -59.97774717	      2.53592755	    -11.69193827	      3.89754898	     -0.24270510	      9.63727079	     -4.01605470	     -4.65207348	      1.52369955	     -2.62073942	      0.63910796	      5.01082938	     -2.01445192	     -1.91177925
      1.66250000	      2.48079500	      3.95428000	     -0.47433501	      0.52063461	      1.07402624	      0.33216592	     14.96584772	     -6.06657779	     -0.55536980	    -59.47702826	      2.71805305	    -11.76166336	      3.86234213	     -0.64026276	      9.62759906	     -3.93921269	     -4.40595915	      1.55565789	     -2.57553310	      0.61915698	      4.99266323	     -2.01814950	     -1.94448180
      1.66666667	      2.46959265	      3.95696525	     -0.41246741	      0.52514908	      1.07424632	      0.33201020	     15.46401437	     -6.01288092	     -0.38816555	    -58.96602866	      3.00016793	    -11.84438713	      3.82367610	     -1.03418836	      9.64609167	     -3.83544444	     -4.14521167	      1.60628313	     -2.52416736	      0.59671611	      4.96908621	     -2.01324571	     -1.99162112
      1.67083333	      2.47106885	      3.98246733	     -0.34789970	      0.52960173	      1.07442112	      0.33172720	     15.94748163	     -6.00531057	     -0.25582484	    -58.45619773	      3.50716410	    -11.93098204	      3.74033138	     -1.44101629	      9.70544530	     -3.70376970	     -3.87467878	      1.70697481	     -2.48941497	      0.54514740	      5.00074330	     -1.99054580	     -2.09144468
      1.67500000	      2.44481188	      3.98628846	     -0.26879651	      0.53408709	      1.07457035	      0.33154144	     16.43548440	     -5.95928316	     -0.12206967	    -57.87670317	      3.84408349	    -11.93714549	      3.66204512	     -1.81686418	      9.72573038	     -3.58644797	     -3.61427562	      1.77243528	     -2.46297503	      0.49530153	      4.98384610	     -2.00360338	     -2.18437519
      1.67916667	      2.40616595	      3.99725131	     -0.19366486	      0.53853945	      1.07466015	      0.33134673	     16.93148403	     -5.92443702	      0.00778558	    -57.27025594	      4.17506346	    -11.94270709	      3.57922062	     -2.17738883	      9.75488650	     -3.46939514	     -3.35387143	      1.83642869	     -2.45047192	      0.44138666	      4.98878320	     -2.01452209	     -2.28181964
      1.68333333	      2.35691976	      3.99364559	     -0.09928491	      0.54297817	      1.07472746	      0.33121358	     17.41829095	     -5.86875032	      0.12114205	    -56.60587456	      4.34033083	    -11.95564342	      3.54908407	     -2.51268527	      9.75558525	     -3.42349766	     -3.12857480	      1.87053343	     -2.43686019	      0.42197821	      4.92577048	     -2.04908686	     -2.31959042
      1.68750000	      2.33260612	      4.01493278	     -0.05591983	      0.54746590	      1.07477864	      0.33100684	     17.87727600	     -5.84571901	      0.25325242	    -55.93984318	      4.74016436	    -11.99158180	      3.45873526	     -2.90817858	      9.80519308	     -3.25010355	     -2.82650023	      1.95380244	     -2.43488998	      0.36139268	      5.00924952	     -2.03102158	     -2.43537979
      1.69166667	      2.27137640	      4.02038569	      0.02731596	      0.55188571	      1.07476312	      0.33087510	     18.35686954	     -5.80034615	      0.35950356	    -55.21320412	      4.89265597	    -12.00378710	      3.42710133	     -3.23082977	      9.81682382	     -3.20192422	     -2.59710536	      1.98811686	     -2.42901470	      0.34034127	      4.94294459	     -2.07352160	     -2.47422022
      1.69583333	      2.22546998	      4.03300338	      0.07785732	      0.55632423	      1.07473407	      0.33077940	     18.81230042	     -5.75490776	      0.49004934	    -54.45718398	      5.09671814	    -12.03994664	      3.38937691	     -3.58514829	      9.84004317	     -3.09778947	     -2.32991223	      2.03611422	     -2.41285826	      0.31521234	      4.94596981	     -2.09732792	     -2.52459246
      1.70000000	      2.19616951	      4.05545942	      0.11971053	      0.56081919	      1.07469639	      0.33055970	     19.23599920	     -5.73728423	      0.58591450	    -53.68817828	      5.40896607	    -12.10145845	      3.30787417	     -3.97641687	      9.88929733	     -2.92902064	     -2.02523322	      2.12245586	     -2.43185101	      0.25881233	      5.04429255	     -2.07903408	     -2.63186968
      1.70416667	      2.12286355	      4.07670051	      0.19212582	      0.56521986	      1.07456314	      0.33036863	     19.69837342	     -5.72059617	      0.64883539	    -52.87819237	      5.52543088	    -12.12190264	      3.28385625	     -4.28133824	      9.92509240	     -2.91029910	     -1.79099400	      2.15657350	     -2.43221742	      0.24254662	      4.96897060	     -2.13127332	     -2.66032453
      1.70833333	      2.07748037	      4.09372916	      0.22742206	      0.56970236	      1.07444959	      0.33026629	     20.10815318	     -5.68116523	      0.76741608	    -52.02543845	      5.75968023	    -12.20568556	      3.20013293	     -4.65284074	      9.95399064	     -2.71787159	     -1.50279362	      2.24073196	     -2.45066462	      0.18395749	      5.09227117	     -2.12540969	     -2.76339687
      1.71250000	      2.00269208	      4.11737180	      0.29445676	      0.57407757	      1.07426583	      0.33017820	     20.54169532	     -5.65425764	      0.85051401	    -51.14207152	      5.87401253	    -12.24396373	      3.16367765	     -4.95260424	      9.97970837	     -2.66997723	     -1.28588259	      2.28239358	     -2.45865026	      0.15861766	      5.04350478	     -2.17786783	     -2.80308298
